<?xml version="1.0" encoding="iso-8859-1"?>
<!-- Generator: Adobe Illustrator 19.0.0, SVG Export Plug-In . SVG Version: 6.00 Build 0)  -->
<svg version="1.1" id="Layer_1" xmlns="http://www.w3.org/2000/svg" xmlns:xlink="http://www.w3.org/1999/xlink" x="0px" y="0px"
	 viewBox="0 0 512 512" style="enable-background:new 0 0 512 512;" xml:space="preserve">
<path style="fill:#FF648D;" d="M512,264.616c0-15.176-6.88-28.743-17.687-37.762c7.376-11.88,9.67-26.804,5.011-41.145
	c-4.689-14.434-15.426-25.21-28.491-30.447c3.344-13.578,0.914-28.481-7.948-40.68c-8.921-12.278-22.461-19.209-36.506-20.154
	c-1.015-13.945-7.932-27.369-20.13-36.232c-12.278-8.921-27.297-11.329-40.947-7.886c-5.275-12.95-16.001-23.579-30.342-28.238
	c-14.434-4.689-29.462-2.339-41.38,5.153C284.564,16.54,271.078,9.746,256,9.746c-15.078,0-28.564,6.794-37.582,17.48
	c-11.916-7.492-26.945-9.843-41.38-5.153c-14.34,4.66-25.066,15.288-30.342,28.238c-13.648-3.443-28.669-1.034-40.947,7.886
	C93.551,67.059,86.635,80.482,85.62,94.428c-14.044,0.945-27.585,7.876-36.506,20.154c-8.862,12.198-11.293,27.102-7.948,40.68
	c-13.065,5.237-23.801,16.013-28.491,30.447c-4.659,14.34-2.365,29.265,5.011,41.145C6.88,235.873,0,249.44,0,264.616
	c0,15.077,6.794,28.563,17.48,37.582c-7.491,11.917-9.843,26.945-5.152,41.38c4.659,14.339,15.288,25.066,28.238,30.34
	c-3.443,13.648-1.034,28.668,7.886,40.947c8.863,12.198,22.285,19.115,36.232,20.129h45.844h250.945h45.844
	c13.946-1.015,27.369-7.932,36.232-20.129c8.92-12.278,11.329-27.297,7.886-40.947c12.95-5.276,23.579-16.001,28.238-30.34
	c4.689-14.434,2.339-29.462-5.152-41.38C505.206,293.179,512,279.693,512,264.616z"/>
<path style="fill:#FD387E;" d="M512,264.616c0-15.176-6.88-28.743-17.687-37.762c7.376-11.88,9.67-26.804,5.011-41.145
	c-4.689-14.434-15.426-25.21-28.491-30.447c3.344-13.578,0.914-28.481-7.948-40.68c-8.921-12.278-22.461-19.209-36.506-20.154
	c-1.015-13.945-7.932-27.369-20.13-36.232c-12.278-8.921-27.297-11.329-40.947-7.886c-5.275-12.95-16.001-23.579-30.342-28.238
	c-14.434-4.689-29.462-2.339-41.38,5.153C284.564,16.54,271.078,9.746,256,9.746v425.248h125.472h45.844
	c13.946-1.015,27.369-7.932,36.232-20.129c8.92-12.278,11.329-27.297,7.886-40.947c12.95-5.276,23.579-16.001,28.238-30.34
	c4.689-14.434,2.339-29.462-5.152-41.38C505.206,293.179,512,279.693,512,264.616z"/>
<path style="fill:#FFBAAA;" d="M394.686,294.105c0,0-81.508-8.548-138.686-56.196c-57.177,47.648-138.686,56.196-138.686,56.196
	v69.463c0,76.594,62.092,138.685,138.685,138.685l0,0c76.594,0,138.685-62.092,138.685-138.685v-69.463H394.686z"/>
<path style="fill:#FF977F;" d="M394.686,294.105c0,0-81.508-8.548-138.686-56.196c0,61.5,0,198.404,0,264.346l0,0
	c76.594,0,138.685-62.092,138.685-138.685v-69.464H394.686z"/>
<g>
	<circle style="fill:#4D4D4D;" cx="200.593" cy="369.508" r="23.824"/>
	<circle style="fill:#4D4D4D;" cx="311.407" cy="369.508" r="23.824"/>
</g>
<rect x="223.833" y="420.141" style="fill:#FF648D;" width="64.324" height="33.391"/>
<rect x="256" y="420.141" style="fill:#FD387E;" width="32.162" height="33.391"/>
<g>
</g>
<g>
</g>
<g>
</g>
<g>
</g>
<g>
</g>
<g>
</g>
<g>
</g>
<g>
</g>
<g>
</g>
<g>
</g>
<g>
</g>
<g>
</g>
<g>
</g>
<g>
</g>
<g>
</g>
</svg>
